<svg width="110" height="60" viewBox="0 0 110 60" fill="none" xmlns="http://www.w3.org/2000/svg">
<path d="M17.7631 39.4689H19.6166L11.6099 59.3469L17.7631 39.4689Z" fill="url(#paint0_linear_169:81)"/>
<path d="M29.9781 0L47.6898 30.2494H44.1392L33.0406 9.24179L31.2044 10.702L23.3303 30.2494H20.6157L29.9781 0Z" fill="url(#paint1_linear_169:81)"/>
<path d="M56.3148 39.4689H60.5329L53.8579 48.6438L49.0093 39.4689H53.086L54.4711 41.8336L56.3148 39.4689Z" fill="url(#paint2_linear_169:81)"/>
<path d="M73.453 17.5133L81.6924 30.2495H77.4069L75.2913 27.7286L72.23 29.6734L69.7806 26.7551L67.2378 30.2495H63.5122L73.453 17.5133Z" fill="url(#paint3_linear_169:81)"/>
<path d="M96.1086 52.5356L85.1426 39.4689H87.6539L96.1086 52.5356Z" fill="url(#paint4_linear_169:81)"/>
<path d="M18.3366 36.8779H14.1381L13.3869 38.3371H11.4028L15.0197 31.4812H17.4549L21.0816 38.3371H19.0878L18.3366 36.8779ZM17.6647 35.5654L16.2417 32.7799L14.8088 35.5612L17.6647 35.5654Z" fill="url(#paint5_linear_169:81)"/>
<path d="M18.3366 36.8779H14.1381L13.3869 38.3371H11.4028L15.0197 31.4812H17.4549L21.0816 38.3371H19.0878L18.3366 36.8779ZM17.6647 35.5654L16.2417 32.7799L14.8088 35.5612L17.6647 35.5654Z" fill="white" fill-opacity="0.2"/>
<path d="M32.2535 38.3328H30.4499V33.6322L27.5353 38.3328H26.2308L23.3151 33.6322V38.3328H21.5137V31.4769H23.9478L26.883 36.3146L29.8183 31.4769H32.2524L32.2535 38.3328Z" fill="url(#paint6_linear_169:81)"/>
<path d="M32.2535 38.3328H30.4499V33.6322L27.5353 38.3328H26.2308L23.3151 33.6322V38.3328H21.5137V31.4769H23.9478L26.883 36.3146L29.8183 31.4769H32.2524L32.2535 38.3328Z" fill="white" fill-opacity="0.2"/>
<path d="M10.7409 38.3352H8.93736V33.6346L6.02274 38.3352H4.71818L1.80356 33.6346V38.3352H0V31.4793H2.43519L5.37046 36.317L8.30573 31.4793H10.7409V38.3352Z" fill="url(#paint7_linear_169:81)"/>
<path d="M10.7409 38.3352H8.93736V33.6346L6.02274 38.3352H4.71818L1.80356 33.6346V38.3352H0V31.4793H2.43519L5.37046 36.317L8.30573 31.4793H10.7409V38.3352Z" fill="white" fill-opacity="0.2"/>
<path d="M34.8596 31.4769V36.6281L39.6495 31.4769H42.0934V38.3328H40.2898V33.1911L35.5064 38.3328H33.0571V31.4769H34.8596Z" fill="url(#paint8_linear_169:81)"/>
<path d="M34.8596 31.4769V36.6281L39.6495 31.4769H42.0934V38.3328H40.2898V33.1911L35.5064 38.3328H33.0571V31.4769H34.8596Z" fill="white" fill-opacity="0.2"/>
<path d="M47.1037 31.3792C49.8987 31.3792 51.3011 32.4175 51.4816 34.3963H49.6486C49.478 33.2889 48.6061 32.8585 47.1037 32.8585C45.2697 32.8585 44.4945 33.4962 44.4945 34.8948C44.4945 36.2934 45.2762 36.9523 47.1037 36.9523C48.5963 36.9523 49.478 36.5112 49.6486 35.3943H51.4816C51.3011 37.3827 49.8987 38.4306 47.1037 38.4306C44.0173 38.4306 42.6953 37.1776 42.6953 34.8948C42.6953 32.612 44.0173 31.3792 47.1037 31.3792Z" fill="url(#paint9_linear_169:81)"/>
<path d="M47.1037 31.3792C49.8987 31.3792 51.3011 32.4175 51.4816 34.3963H49.6486C49.478 33.2889 48.6061 32.8585 47.1037 32.8585C45.2697 32.8585 44.4945 33.4962 44.4945 34.8948C44.4945 36.2934 45.2762 36.9523 47.1037 36.9523C48.5963 36.9523 49.478 36.5112 49.6486 35.3943H51.4816C51.3011 37.3827 49.8987 38.4306 47.1037 38.4306C44.0173 38.4306 42.6953 37.1776 42.6953 34.8948C42.6953 32.612 44.0173 31.3792 47.1037 31.3792Z" fill="white" fill-opacity="0.2"/>
<path d="M52.0337 34.8948C52.0337 32.6226 53.3557 31.3792 56.442 31.3792C59.5284 31.3792 60.8504 32.6332 60.8504 34.8948C60.8504 37.1563 59.5176 38.4306 56.442 38.4306C53.3665 38.4306 52.0337 37.1776 52.0337 34.8948ZM59.0468 34.8948C59.0468 33.5047 58.325 32.8585 56.4377 32.8585C54.5504 32.8585 53.8286 33.4962 53.8286 34.8948C53.8286 36.2934 54.5591 36.9523 56.4377 36.9523C58.3163 36.9523 59.0468 36.2955 59.0468 34.8948Z" fill="url(#paint10_linear_169:81)"/>
<path d="M52.0337 34.8948C52.0337 32.6226 53.3557 31.3792 56.442 31.3792C59.5284 31.3792 60.8504 32.6332 60.8504 34.8948C60.8504 37.1563 59.5176 38.4306 56.442 38.4306C53.3665 38.4306 52.0337 37.1776 52.0337 34.8948ZM59.0468 34.8948C59.0468 33.5047 58.325 32.8585 56.4377 32.8585C54.5504 32.8585 53.8286 33.4962 53.8286 34.8948C53.8286 36.2934 54.5591 36.9523 56.4377 36.9523C58.3163 36.9523 59.0468 36.2955 59.0468 34.8948Z" fill="white" fill-opacity="0.2"/>
<path d="M70.8169 31.4769V38.3328H69.0166V35.6493H63.3059V38.3328H61.5034V31.4769H63.3059V34.1604H69.0166V31.4769H70.8169Z" fill="url(#paint11_linear_169:81)"/>
<path d="M70.8169 31.4769V38.3328H69.0166V35.6493H63.3059V38.3328H61.5034V31.4769H63.3059V34.1604H69.0166V31.4769H70.8169Z" fill="white" fill-opacity="0.2"/>
<path d="M78.6861 36.8545H84.013V38.3328H76.1606V37.4412C76.1606 34.5919 82.3128 35.2285 82.3128 33.6705C82.3128 33.103 81.942 32.8585 80.3885 32.8585C78.835 32.8585 78.1251 33.0828 78.1251 34.17H76.3215C76.3215 31.8882 77.9642 31.3792 80.2885 31.3792C82.703 31.3792 84.1163 31.8298 84.1163 33.5334C84.1163 36.1882 79.1264 35.4963 78.6861 36.8545Z" fill="url(#paint12_linear_169:81)"/>
<path d="M78.6861 36.8545H84.013V38.3328H76.1606V37.4412C76.1606 34.5919 82.3128 35.2285 82.3128 33.6705C82.3128 33.103 81.942 32.8585 80.3885 32.8585C78.835 32.8585 78.1251 33.0828 78.1251 34.17H76.3215C76.3215 31.8882 77.9642 31.3792 80.2885 31.3792C82.703 31.3792 84.1163 31.8298 84.1163 33.5334C84.1163 36.1882 79.1264 35.4963 78.6861 36.8545Z" fill="white" fill-opacity="0.2"/>
<path d="M84.6079 34.8948C84.6079 32.6226 85.9299 31.3792 88.7151 31.3792C91.5004 31.3792 92.8234 32.6332 92.8234 34.8948C92.8234 37.1563 91.4906 38.4306 88.7151 38.4306C85.9397 38.4306 84.6079 37.1776 84.6079 34.8948ZM91.022 34.8948C91.022 33.6195 90.3002 32.8585 88.7173 32.8585C87.1344 32.8585 86.4136 33.612 86.4136 34.8948C86.4136 36.1775 87.1344 36.9523 88.7173 36.9523C90.3002 36.9523 91.0199 36.1786 91.0199 34.8948H91.022Z" fill="url(#paint13_linear_169:81)"/>
<path d="M84.6079 34.8948C84.6079 32.6226 85.9299 31.3792 88.7151 31.3792C91.5004 31.3792 92.8234 32.6332 92.8234 34.8948C92.8234 37.1563 91.4906 38.4306 88.7151 38.4306C85.9397 38.4306 84.6079 37.1776 84.6079 34.8948ZM91.022 34.8948C91.022 33.6195 90.3002 32.8585 88.7173 32.8585C87.1344 32.8585 86.4136 33.612 86.4136 34.8948C86.4136 36.1775 87.1344 36.9523 88.7173 36.9523C90.3002 36.9523 91.0199 36.1786 91.0199 34.8948H91.022Z" fill="white" fill-opacity="0.2"/>
<path d="M95.7787 36.8545H101.106V38.3328H93.2544V37.4412C93.2544 34.5919 99.4054 35.2285 99.4054 33.6705C99.4054 33.103 99.0347 32.8585 97.4823 32.8585C95.9298 32.8585 95.2178 33.0828 95.2178 34.17H93.4142C93.4142 31.8882 95.058 31.3792 97.3823 31.3792C99.7968 31.3792 101.209 31.8298 101.209 33.5334C101.209 36.1882 96.2201 35.4963 95.7787 36.8545Z" fill="url(#paint14_linear_169:81)"/>
<path d="M95.7787 36.8545H101.106V38.3328H93.2544V37.4412C93.2544 34.5919 99.4054 35.2285 99.4054 33.6705C99.4054 33.103 99.0347 32.8585 97.4823 32.8585C95.9298 32.8585 95.2178 33.0828 95.2178 34.17H93.4142C93.4142 31.8882 95.058 31.3792 97.3823 31.3792C99.7968 31.3792 101.209 31.8298 101.209 33.5334C101.209 36.1882 96.2201 35.4963 95.7787 36.8545Z" fill="white" fill-opacity="0.2"/>
<path d="M109.736 37.2169H108.333V38.3328H106.53V37.2169H101.582V35.729L106.531 31.4779H108.334V35.729H109.736V37.2169ZM106.53 35.729V33.24L103.524 35.7279L106.53 35.729Z" fill="url(#paint15_linear_169:81)"/>
<path d="M109.736 37.2169H108.333V38.3328H106.53V37.2169H101.582V35.729L106.531 31.4779H108.334V35.729H109.736V37.2169ZM106.53 35.729V33.24L103.524 35.7279L106.53 35.729Z" fill="white" fill-opacity="0.2"/>
<defs>
<linearGradient id="paint0_linear_169:81" x1="3732.28" y1="-2420.42" x2="-8935.88" y2="10211.4" gradientUnits="userSpaceOnUse">
<stop stop-color="#F8F8F8"/>
<stop offset="0.05" stop-color="#F5F7F8"/>
<stop offset="0.08" stop-color="#EAF2F8"/>
<stop offset="0.12" stop-color="#D9EBF7"/>
<stop offset="0.15" stop-color="#C1E2F6"/>
<stop offset="0.18" stop-color="#A2D5F5"/>
<stop offset="0.21" stop-color="#7BC5F4"/>
<stop offset="0.24" stop-color="#4DB2F2"/>
<stop offset="0.27" stop-color="#1A9DF0"/>
<stop offset="0.28" stop-color="#0F99F0"/>
<stop offset="1" stop-color="#0162C6"/>
</linearGradient>
<linearGradient id="paint1_linear_169:81" x1="12601.7" y1="-3743.37" x2="-1855.06" y2="28287.8" gradientUnits="userSpaceOnUse">
<stop stop-color="#F8F8F8"/>
<stop offset="0.05" stop-color="#F5F7F8"/>
<stop offset="0.08" stop-color="#EAF2F8"/>
<stop offset="0.12" stop-color="#D9EBF7"/>
<stop offset="0.15" stop-color="#C1E2F6"/>
<stop offset="0.18" stop-color="#A2D5F5"/>
<stop offset="0.21" stop-color="#7BC5F4"/>
<stop offset="0.24" stop-color="#4DB2F2"/>
<stop offset="0.27" stop-color="#1A9DF0"/>
<stop offset="0.28" stop-color="#0F99F0"/>
<stop offset="1" stop-color="#0162C6"/>
</linearGradient>
<linearGradient id="paint2_linear_169:81" x1="5403.94" y1="-1095.92" x2="1995.43" y2="9502.08" gradientUnits="userSpaceOnUse">
<stop stop-color="#F8F8F8"/>
<stop offset="0.05" stop-color="#F5F7F8"/>
<stop offset="0.08" stop-color="#EAF2F8"/>
<stop offset="0.12" stop-color="#D9EBF7"/>
<stop offset="0.15" stop-color="#C1E2F6"/>
<stop offset="0.18" stop-color="#A2D5F5"/>
<stop offset="0.21" stop-color="#7BC5F4"/>
<stop offset="0.24" stop-color="#4DB2F2"/>
<stop offset="0.27" stop-color="#1A9DF0"/>
<stop offset="0.28" stop-color="#0F99F0"/>
<stop offset="1" stop-color="#0162C6"/>
</linearGradient>
<linearGradient id="paint3_linear_169:81" x1="8511.66" y1="-1558.59" x2="4258.33" y2="13471.3" gradientUnits="userSpaceOnUse">
<stop stop-color="#F8F8F8"/>
<stop offset="0.05" stop-color="#F5F7F8"/>
<stop offset="0.08" stop-color="#EAF2F8"/>
<stop offset="0.12" stop-color="#D9EBF7"/>
<stop offset="0.15" stop-color="#C1E2F6"/>
<stop offset="0.18" stop-color="#A2D5F5"/>
<stop offset="0.21" stop-color="#7BC5F4"/>
<stop offset="0.24" stop-color="#4DB2F2"/>
<stop offset="0.27" stop-color="#1A9DF0"/>
<stop offset="0.28" stop-color="#0F99F0"/>
<stop offset="1" stop-color="#0162C6"/>
</linearGradient>
<linearGradient id="paint4_linear_169:81" x1="5180.92" y1="-1577.53" x2="-1327.7" y2="11944.4" gradientUnits="userSpaceOnUse">
<stop stop-color="#F8F8F8"/>
<stop offset="0.05" stop-color="#F5F7F8"/>
<stop offset="0.08" stop-color="#EAF2F8"/>
<stop offset="0.12" stop-color="#D9EBF7"/>
<stop offset="0.15" stop-color="#C1E2F6"/>
<stop offset="0.18" stop-color="#A2D5F5"/>
<stop offset="0.21" stop-color="#7BC5F4"/>
<stop offset="0.24" stop-color="#4DB2F2"/>
<stop offset="0.27" stop-color="#1A9DF0"/>
<stop offset="0.28" stop-color="#0F99F0"/>
<stop offset="1" stop-color="#0162C6"/>
</linearGradient>
<linearGradient id="paint5_linear_169:81" x1="4509.04" y1="-816.935" x2="2197.84" y2="7260.26" gradientUnits="userSpaceOnUse">
<stop stop-color="#F8F8F8"/>
<stop offset="0.05" stop-color="#F5F7F8"/>
<stop offset="0.08" stop-color="#EAF2F8"/>
<stop offset="0.12" stop-color="#D9EBF7"/>
<stop offset="0.15" stop-color="#C1E2F6"/>
<stop offset="0.18" stop-color="#A2D5F5"/>
<stop offset="0.21" stop-color="#7BC5F4"/>
<stop offset="0.24" stop-color="#4DB2F2"/>
<stop offset="0.27" stop-color="#1A9DF0"/>
<stop offset="0.28" stop-color="#0F99F0"/>
<stop offset="1" stop-color="#0162C6"/>
</linearGradient>
<linearGradient id="paint6_linear_169:81" x1="5012.2" y1="-816.938" x2="2899.31" y2="7376.72" gradientUnits="userSpaceOnUse">
<stop stop-color="#F8F8F8"/>
<stop offset="0.05" stop-color="#F5F7F8"/>
<stop offset="0.08" stop-color="#EAF2F8"/>
<stop offset="0.12" stop-color="#D9EBF7"/>
<stop offset="0.15" stop-color="#C1E2F6"/>
<stop offset="0.18" stop-color="#A2D5F5"/>
<stop offset="0.21" stop-color="#7BC5F4"/>
<stop offset="0.24" stop-color="#4DB2F2"/>
<stop offset="0.27" stop-color="#1A9DF0"/>
<stop offset="0.28" stop-color="#0F99F0"/>
<stop offset="1" stop-color="#0162C6"/>
</linearGradient>
<linearGradient id="paint7_linear_169:81" x1="4991.2" y1="-816.936" x2="2878.49" y2="7376.83" gradientUnits="userSpaceOnUse">
<stop stop-color="#F8F8F8"/>
<stop offset="0.05" stop-color="#F5F7F8"/>
<stop offset="0.08" stop-color="#EAF2F8"/>
<stop offset="0.12" stop-color="#D9EBF7"/>
<stop offset="0.15" stop-color="#C1E2F6"/>
<stop offset="0.18" stop-color="#A2D5F5"/>
<stop offset="0.21" stop-color="#7BC5F4"/>
<stop offset="0.24" stop-color="#4DB2F2"/>
<stop offset="0.27" stop-color="#1A9DF0"/>
<stop offset="0.28" stop-color="#0F99F0"/>
<stop offset="1" stop-color="#0162C6"/>
</linearGradient>
<linearGradient id="paint8_linear_169:81" x1="4232.13" y1="-816.938" x2="1783.89" y2="7171.23" gradientUnits="userSpaceOnUse">
<stop stop-color="#F8F8F8"/>
<stop offset="0.05" stop-color="#F5F7F8"/>
<stop offset="0.08" stop-color="#EAF2F8"/>
<stop offset="0.12" stop-color="#D9EBF7"/>
<stop offset="0.15" stop-color="#C1E2F6"/>
<stop offset="0.18" stop-color="#A2D5F5"/>
<stop offset="0.21" stop-color="#7BC5F4"/>
<stop offset="0.24" stop-color="#4DB2F2"/>
<stop offset="0.27" stop-color="#1A9DF0"/>
<stop offset="0.28" stop-color="#0F99F0"/>
<stop offset="1" stop-color="#0162C6"/>
</linearGradient>
<linearGradient id="paint9_linear_169:81" x1="4125.58" y1="-841.236" x2="1488.91" y2="7291.73" gradientUnits="userSpaceOnUse">
<stop stop-color="#F8F8F8"/>
<stop offset="0.05" stop-color="#F5F7F8"/>
<stop offset="0.08" stop-color="#EAF2F8"/>
<stop offset="0.12" stop-color="#D9EBF7"/>
<stop offset="0.15" stop-color="#C1E2F6"/>
<stop offset="0.18" stop-color="#A2D5F5"/>
<stop offset="0.21" stop-color="#7BC5F4"/>
<stop offset="0.24" stop-color="#4DB2F2"/>
<stop offset="0.27" stop-color="#1A9DF0"/>
<stop offset="0.28" stop-color="#0F99F0"/>
<stop offset="1" stop-color="#0162C6"/>
</linearGradient>
<linearGradient id="paint10_linear_169:81" x1="4149.07" y1="-841.236" x2="1519.78" y2="7297.07" gradientUnits="userSpaceOnUse">
<stop stop-color="#F8F8F8"/>
<stop offset="0.05" stop-color="#F5F7F8"/>
<stop offset="0.08" stop-color="#EAF2F8"/>
<stop offset="0.12" stop-color="#D9EBF7"/>
<stop offset="0.15" stop-color="#C1E2F6"/>
<stop offset="0.18" stop-color="#A2D5F5"/>
<stop offset="0.21" stop-color="#7BC5F4"/>
<stop offset="0.24" stop-color="#4DB2F2"/>
<stop offset="0.27" stop-color="#1A9DF0"/>
<stop offset="0.28" stop-color="#0F99F0"/>
<stop offset="1" stop-color="#0162C6"/>
</linearGradient>
<linearGradient id="paint11_linear_169:81" x1="4389.4" y1="-816.938" x2="2002.01" y2="7211.66" gradientUnits="userSpaceOnUse">
<stop stop-color="#F8F8F8"/>
<stop offset="0.05" stop-color="#F5F7F8"/>
<stop offset="0.08" stop-color="#EAF2F8"/>
<stop offset="0.12" stop-color="#D9EBF7"/>
<stop offset="0.15" stop-color="#C1E2F6"/>
<stop offset="0.18" stop-color="#A2D5F5"/>
<stop offset="0.21" stop-color="#7BC5F4"/>
<stop offset="0.24" stop-color="#4DB2F2"/>
<stop offset="0.27" stop-color="#1A9DF0"/>
<stop offset="0.28" stop-color="#0F99F0"/>
<stop offset="1" stop-color="#0162C6"/>
</linearGradient>
<linearGradient id="paint12_linear_169:81" x1="3773.08" y1="-829.136" x2="990.589" y2="7051.57" gradientUnits="userSpaceOnUse">
<stop stop-color="#F8F8F8"/>
<stop offset="0.05" stop-color="#F5F7F8"/>
<stop offset="0.08" stop-color="#EAF2F8"/>
<stop offset="0.12" stop-color="#D9EBF7"/>
<stop offset="0.15" stop-color="#C1E2F6"/>
<stop offset="0.18" stop-color="#A2D5F5"/>
<stop offset="0.21" stop-color="#7BC5F4"/>
<stop offset="0.24" stop-color="#4DB2F2"/>
<stop offset="0.27" stop-color="#1A9DF0"/>
<stop offset="0.28" stop-color="#0F99F0"/>
<stop offset="1" stop-color="#0162C6"/>
</linearGradient>
<linearGradient id="paint13_linear_169:81" x1="3902.27" y1="-841.236" x2="1120.46" y2="7182.02" gradientUnits="userSpaceOnUse">
<stop stop-color="#F8F8F8"/>
<stop offset="0.05" stop-color="#F5F7F8"/>
<stop offset="0.08" stop-color="#EAF2F8"/>
<stop offset="0.12" stop-color="#D9EBF7"/>
<stop offset="0.15" stop-color="#C1E2F6"/>
<stop offset="0.18" stop-color="#A2D5F5"/>
<stop offset="0.21" stop-color="#7BC5F4"/>
<stop offset="0.24" stop-color="#4DB2F2"/>
<stop offset="0.27" stop-color="#1A9DF0"/>
<stop offset="0.28" stop-color="#0F99F0"/>
<stop offset="1" stop-color="#0162C6"/>
</linearGradient>
<linearGradient id="paint14_linear_169:81" x1="3789.68" y1="-829.136" x2="1006.89" y2="7051.33" gradientUnits="userSpaceOnUse">
<stop stop-color="#F8F8F8"/>
<stop offset="0.05" stop-color="#F5F7F8"/>
<stop offset="0.08" stop-color="#EAF2F8"/>
<stop offset="0.12" stop-color="#D9EBF7"/>
<stop offset="0.15" stop-color="#C1E2F6"/>
<stop offset="0.18" stop-color="#A2D5F5"/>
<stop offset="0.21" stop-color="#7BC5F4"/>
<stop offset="0.24" stop-color="#4DB2F2"/>
<stop offset="0.27" stop-color="#1A9DF0"/>
<stop offset="0.28" stop-color="#0F99F0"/>
<stop offset="1" stop-color="#0162C6"/>
</linearGradient>
<linearGradient id="paint15_linear_169:81" x1="3890.44" y1="-816.806" x2="1230.04" y2="7016.84" gradientUnits="userSpaceOnUse">
<stop stop-color="#F8F8F8"/>
<stop offset="0.05" stop-color="#F5F7F8"/>
<stop offset="0.08" stop-color="#EAF2F8"/>
<stop offset="0.12" stop-color="#D9EBF7"/>
<stop offset="0.15" stop-color="#C1E2F6"/>
<stop offset="0.18" stop-color="#A2D5F5"/>
<stop offset="0.21" stop-color="#7BC5F4"/>
<stop offset="0.24" stop-color="#4DB2F2"/>
<stop offset="0.27" stop-color="#1A9DF0"/>
<stop offset="0.28" stop-color="#0F99F0"/>
<stop offset="1" stop-color="#0162C6"/>
</linearGradient>
</defs>
</svg>
