<svg width="110" height="60" viewBox="0 0 110 60" fill="none" xmlns="http://www.w3.org/2000/svg">
<path d="M17.7631 39.4689H19.6166L11.6099 59.3469L17.7631 39.4689Z" fill="black" fill-opacity="0.8"/>
<path d="M29.9784 0L47.69 30.2494H44.1394L33.0409 9.24179L31.2047 10.702L23.3305 30.2494H20.616L29.9784 0Z" fill="black" fill-opacity="0.8"/>
<path d="M56.3146 39.4689H60.5327L53.8577 48.6438L49.009 39.4689H53.0858L54.4708 41.8336L56.3146 39.4689Z" fill="black" fill-opacity="0.8"/>
<path d="M73.4527 17.5133L81.6921 30.2495H77.4067L75.2911 27.7286L72.2297 29.6734L69.7804 26.7551L67.2376 30.2495H63.512L73.4527 17.5133Z" fill="black" fill-opacity="0.8"/>
<path d="M96.1088 52.5356L85.1428 39.4689H87.6541L96.1088 52.5356Z" fill="black" fill-opacity="0.8"/>
<path d="M18.3366 36.8779H14.1381L13.3869 38.3371H11.4028L15.0197 31.4812H17.4549L21.0816 38.3371H19.0878L18.3366 36.8779ZM17.6647 35.5654L16.2417 32.7799L14.8088 35.5612L17.6647 35.5654Z" fill="black" fill-opacity="0.8"/>
<path d="M32.2535 38.3328H30.4499V33.6322L27.5353 38.3328H26.2308L23.3151 33.6322V38.3328H21.5137V31.4769H23.9478L26.883 36.3146L29.8183 31.4769H32.2524L32.2535 38.3328Z" fill="black" fill-opacity="0.8"/>
<path d="M10.7409 38.3352H8.93736V33.6346L6.02274 38.3352H4.71818L1.80356 33.6346V38.3352H0V31.4793H2.43519L5.37046 36.317L8.30573 31.4793H10.7409V38.3352Z" fill="black" fill-opacity="0.8"/>
<path d="M34.8598 31.4769V36.6281L39.6498 31.4769H42.0937V38.3328H40.2901V33.1911L35.5067 38.3328H33.0574V31.4769H34.8598Z" fill="black" fill-opacity="0.8"/>
<path d="M47.1037 31.3792C49.8987 31.3792 51.3011 32.4175 51.4816 34.3963H49.6486C49.478 33.2889 48.6061 32.8585 47.1037 32.8585C45.2697 32.8585 44.4945 33.4962 44.4945 34.8948C44.4945 36.2934 45.2762 36.9523 47.1037 36.9523C48.5963 36.9523 49.478 36.5112 49.6486 35.3943H51.4816C51.3011 37.3827 49.8987 38.4306 47.1037 38.4306C44.0173 38.4306 42.6953 37.1776 42.6953 34.8948C42.6953 32.612 44.0173 31.3792 47.1037 31.3792Z" fill="black" fill-opacity="0.8"/>
<path d="M52.0334 34.8948C52.0334 32.6226 53.3554 31.3792 56.4418 31.3792C59.5282 31.3792 60.8502 32.6332 60.8502 34.8948C60.8502 37.1563 59.5173 38.4306 56.4418 38.4306C53.3663 38.4306 52.0334 37.1776 52.0334 34.8948ZM59.0466 34.8948C59.0466 33.5047 58.3247 32.8585 56.4375 32.8585C54.5502 32.8585 53.8283 33.4962 53.8283 34.8948C53.8283 36.2934 54.5589 36.9523 56.4375 36.9523C58.316 36.9523 59.0466 36.2955 59.0466 34.8948Z" fill="black" fill-opacity="0.8"/>
<path d="M70.8167 31.4769V38.3328H69.0164V35.6493H63.3056V38.3328H61.5032V31.4769H63.3056V34.1604H69.0164V31.4769H70.8167Z" fill="black" fill-opacity="0.8"/>
<path d="M78.6861 36.8545H84.013V38.3328H76.1606V37.4412C76.1606 34.5919 82.3128 35.2285 82.3128 33.6705C82.3128 33.103 81.942 32.8585 80.3885 32.8585C78.835 32.8585 78.1251 33.0828 78.1251 34.17H76.3215C76.3215 31.8882 77.9642 31.3792 80.2885 31.3792C82.703 31.3792 84.1163 31.8298 84.1163 33.5334C84.1163 36.1882 79.1264 35.4963 78.6861 36.8545Z" fill="black" fill-opacity="0.8"/>
<path d="M84.6077 34.8948C84.6077 32.6226 85.9296 31.3792 88.7149 31.3792C91.5001 31.3792 92.8232 32.6332 92.8232 34.8948C92.8232 37.1563 91.4903 38.4306 88.7149 38.4306C85.9394 38.4306 84.6077 37.1776 84.6077 34.8948ZM91.0218 34.8948C91.0218 33.6195 90.2999 32.8585 88.717 32.8585C87.1342 32.8585 86.4134 33.612 86.4134 34.8948C86.4134 36.1775 87.1342 36.9523 88.717 36.9523C90.2999 36.9523 91.0196 36.1786 91.0196 34.8948H91.0218Z" fill="black" fill-opacity="0.8"/>
<path d="M95.779 36.8545H101.106V38.3328H93.2546V37.4412C93.2546 34.5919 99.4057 35.2285 99.4057 33.6705C99.4057 33.103 99.035 32.8585 97.4825 32.8585C95.9301 32.8585 95.218 33.0828 95.218 34.17H93.4144C93.4144 31.8882 95.0582 31.3792 97.3825 31.3792C99.797 31.3792 101.209 31.8298 101.209 33.5334C101.209 36.1882 96.2204 35.4963 95.779 36.8545Z" fill="black" fill-opacity="0.8"/>
<path d="M109.736 37.2169H108.333V38.3328H106.53V37.2169H101.582V35.729L106.531 31.4779H108.334V35.729H109.736V37.2169ZM106.53 35.729V33.24L103.524 35.7279L106.53 35.729Z" fill="black" fill-opacity="0.8"/>
</svg>
