<?xml version="1.0" encoding="utf-8"?>
<!-- Generator: Adobe Illustrator 22.0.1, SVG Export Plug-In . SVG Version: 6.00 Build 0)  -->
<svg version="1.1" id="Слой_1" xmlns="http://www.w3.org/2000/svg" xmlns:xlink="http://www.w3.org/1999/xlink" x="0px" y="0px"
	 viewBox="0 0 110 60" style="enable-background:new 0 0 110 60;" xml:space="preserve">
<style type="text/css">
	.st0{fill:url(#SVGID_1_);}
	.st1{fill:url(#SVGID_2_);}
	.st2{fill:url(#SVGID_3_);}
	.st3{fill:url(#SVGID_4_);}
	.st4{fill:url(#SVGID_5_);}
	.st5{fill:url(#SVGID_6_);}
	.st6{fill:#FFFFFF;fill-opacity:0.2;}
	.st7{fill:url(#SVGID_7_);}
	.st8{fill:url(#SVGID_8_);}
	.st9{fill:url(#SVGID_9_);}
	.st10{fill:url(#SVGID_10_);}
	.st11{fill:url(#SVGID_11_);}
	.st12{fill:url(#SVGID_12_);}
	.st13{fill:url(#SVGID_13_);}
	.st14{fill:url(#SVGID_14_);}
	.st15{fill:url(#SVGID_15_);}
	.st16{fill:url(#SVGID_16_);}
</style>
<linearGradient id="SVGID_1_" gradientUnits="userSpaceOnUse" x1="3113.7314" y1="3102.7478" x2="-9554.4277" y2="-9529.0742" gradientTransform="matrix(1 0 0 -1 0 62)">
	<stop  offset="0" style="stop-color:#F8F8F8"/>
	<stop  offset="5.000000e-02" style="stop-color:#F5F7F8"/>
	<stop  offset="8.000000e-02" style="stop-color:#EAF2F8"/>
	<stop  offset="0.12" style="stop-color:#D9EBF7"/>
	<stop  offset="0.15" style="stop-color:#C1E2F6"/>
	<stop  offset="0.18" style="stop-color:#A2D5F5"/>
	<stop  offset="0.21" style="stop-color:#7BC5F4"/>
	<stop  offset="0.24" style="stop-color:#4DB2F2"/>
	<stop  offset="0.27" style="stop-color:#1A9DF0"/>
	<stop  offset="0.28" style="stop-color:#0F99F0"/>
	<stop  offset="1" style="stop-color:#0162C6"/>
</linearGradient>
<path class="st0" d="M17.8,39.5h1.9l-8,19.9L17.8,39.5z"/>
<linearGradient id="SVGID_2_" gradientUnits="userSpaceOnUse" x1="3574.1135" y1="7879.8286" x2="-10882.6484" y2="-24151.3438" gradientTransform="matrix(1 0 0 -1 0 62)">
	<stop  offset="0" style="stop-color:#F8F8F8"/>
	<stop  offset="5.000000e-02" style="stop-color:#F5F7F8"/>
	<stop  offset="8.000000e-02" style="stop-color:#EAF2F8"/>
	<stop  offset="0.12" style="stop-color:#D9EBF7"/>
	<stop  offset="0.15" style="stop-color:#C1E2F6"/>
	<stop  offset="0.18" style="stop-color:#A2D5F5"/>
	<stop  offset="0.21" style="stop-color:#7BC5F4"/>
	<stop  offset="0.24" style="stop-color:#4DB2F2"/>
	<stop  offset="0.27" style="stop-color:#1A9DF0"/>
	<stop  offset="0.28" style="stop-color:#0F99F0"/>
	<stop  offset="1" style="stop-color:#0162C6"/>
</linearGradient>
<path class="st1" d="M30,0l17.7,30.3h-3.5L33,9.2l-1.8,1.5l-7.9,19.5h-2.7L30,0z"/>
<linearGradient id="SVGID_3_" gradientUnits="userSpaceOnUse" x1="887.1425" y1="2610.6042" x2="-2521.3669" y2="-7987.3955" gradientTransform="matrix(1 0 0 -1 0 62)">
	<stop  offset="0" style="stop-color:#F8F8F8"/>
	<stop  offset="5.000000e-02" style="stop-color:#F5F7F8"/>
	<stop  offset="8.000000e-02" style="stop-color:#EAF2F8"/>
	<stop  offset="0.12" style="stop-color:#D9EBF7"/>
	<stop  offset="0.15" style="stop-color:#C1E2F6"/>
	<stop  offset="0.18" style="stop-color:#A2D5F5"/>
	<stop  offset="0.21" style="stop-color:#7BC5F4"/>
	<stop  offset="0.24" style="stop-color:#4DB2F2"/>
	<stop  offset="0.27" style="stop-color:#1A9DF0"/>
	<stop  offset="0.28" style="stop-color:#0F99F0"/>
	<stop  offset="1" style="stop-color:#0162C6"/>
</linearGradient>
<path class="st2" d="M56.3,39.5h4.2l-6.7,9.2L49,39.5h4.1l1.4,2.4L56.3,39.5z"/>
<linearGradient id="SVGID_4_" gradientUnits="userSpaceOnUse" x1="1114.6162" y1="3713.8896" x2="-3138.7131" y2="-11316" gradientTransform="matrix(1 0 0 -1 0 62)">
	<stop  offset="0" style="stop-color:#F8F8F8"/>
	<stop  offset="5.000000e-02" style="stop-color:#F5F7F8"/>
	<stop  offset="8.000000e-02" style="stop-color:#EAF2F8"/>
	<stop  offset="0.12" style="stop-color:#D9EBF7"/>
	<stop  offset="0.15" style="stop-color:#C1E2F6"/>
	<stop  offset="0.18" style="stop-color:#A2D5F5"/>
	<stop  offset="0.21" style="stop-color:#7BC5F4"/>
	<stop  offset="0.24" style="stop-color:#4DB2F2"/>
	<stop  offset="0.27" style="stop-color:#1A9DF0"/>
	<stop  offset="0.28" style="stop-color:#0F99F0"/>
	<stop  offset="1" style="stop-color:#0162C6"/>
</linearGradient>
<path class="st3" d="M73.5,17.5l8.2,12.7h-4.3l-2.1-2.5l-3.1,1.9l-2.4-2.9l-2.5,3.5h-3.7L73.5,17.5z"/>
<linearGradient id="SVGID_5_" gradientUnits="userSpaceOnUse" x1="1682.6058" y1="3323.4019" x2="-4826.0146" y2="-10198.5283" gradientTransform="matrix(1 0 0 -1 0 62)">
	<stop  offset="0" style="stop-color:#F8F8F8"/>
	<stop  offset="5.000000e-02" style="stop-color:#F5F7F8"/>
	<stop  offset="8.000000e-02" style="stop-color:#EAF2F8"/>
	<stop  offset="0.12" style="stop-color:#D9EBF7"/>
	<stop  offset="0.15" style="stop-color:#C1E2F6"/>
	<stop  offset="0.18" style="stop-color:#A2D5F5"/>
	<stop  offset="0.21" style="stop-color:#7BC5F4"/>
	<stop  offset="0.24" style="stop-color:#4DB2F2"/>
	<stop  offset="0.27" style="stop-color:#1A9DF0"/>
	<stop  offset="0.28" style="stop-color:#0F99F0"/>
	<stop  offset="1" style="stop-color:#0162C6"/>
</linearGradient>
<path class="st4" d="M96.1,52.5l-11-13.1h2.5C87.7,39.5,96.1,52.5,96.1,52.5z"/>
<linearGradient id="SVGID_6_" gradientUnits="userSpaceOnUse" x1="582.46" y1="2002.4824" x2="-1728.7401" y2="-6074.7124" gradientTransform="matrix(1 0 0 -1 0 62)">
	<stop  offset="0" style="stop-color:#F8F8F8"/>
	<stop  offset="5.000000e-02" style="stop-color:#F5F7F8"/>
	<stop  offset="8.000000e-02" style="stop-color:#EAF2F8"/>
	<stop  offset="0.12" style="stop-color:#D9EBF7"/>
	<stop  offset="0.15" style="stop-color:#C1E2F6"/>
	<stop  offset="0.18" style="stop-color:#A2D5F5"/>
	<stop  offset="0.21" style="stop-color:#7BC5F4"/>
	<stop  offset="0.24" style="stop-color:#4DB2F2"/>
	<stop  offset="0.27" style="stop-color:#1A9DF0"/>
	<stop  offset="0.28" style="stop-color:#0F99F0"/>
	<stop  offset="1" style="stop-color:#0162C6"/>
</linearGradient>
<path class="st5" d="M18.3,36.9h-4.2l-0.8,1.5h-2l3.6-6.9h2.4l3.6,6.9h-2L18.3,36.9L18.3,36.9z M17.7,35.6l-1.4-2.8l-1.4,2.8
	L17.7,35.6z"/>
<path class="st6" d="M18.3,36.9h-4.2l-0.8,1.5h-2l3.6-6.9h2.4l3.6,6.9h-2L18.3,36.9L18.3,36.9z M17.7,35.6l-1.4-2.8l-1.4,2.8
	L17.7,35.6z"/>
<linearGradient id="SVGID_7_" gradientUnits="userSpaceOnUse" x1="543.6877" y1="2031.2284" x2="-1569.2019" y2="-6162.4297" gradientTransform="matrix(1 0 0 -1 0 62)">
	<stop  offset="0" style="stop-color:#F8F8F8"/>
	<stop  offset="5.000000e-02" style="stop-color:#F5F7F8"/>
	<stop  offset="8.000000e-02" style="stop-color:#EAF2F8"/>
	<stop  offset="0.12" style="stop-color:#D9EBF7"/>
	<stop  offset="0.15" style="stop-color:#C1E2F6"/>
	<stop  offset="0.18" style="stop-color:#A2D5F5"/>
	<stop  offset="0.21" style="stop-color:#7BC5F4"/>
	<stop  offset="0.24" style="stop-color:#4DB2F2"/>
	<stop  offset="0.27" style="stop-color:#1A9DF0"/>
	<stop  offset="0.28" style="stop-color:#0F99F0"/>
	<stop  offset="1" style="stop-color:#0162C6"/>
</linearGradient>
<path class="st7" d="M32.3,38.3h-1.8v-4.7l-2.9,4.7h-1.3l-2.9-4.7v4.7h-1.8v-6.9h2.4l2.9,4.8l2.9-4.8h2.4
	C32.3,31.5,32.3,38.3,32.3,38.3z"/>
<path class="st6" d="M32.3,38.3h-1.8v-4.7l-2.9,4.7h-1.3l-2.9-4.7v4.7h-1.8v-6.9h2.4l2.9,4.8l2.9-4.8h2.4
	C32.3,31.5,32.3,38.3,32.3,38.3z"/>
<linearGradient id="SVGID_8_" gradientUnits="userSpaceOnUse" x1="522.1316" y1="2031.2568" x2="-1590.5785" y2="-6162.5083" gradientTransform="matrix(1 0 0 -1 0 62)">
	<stop  offset="0" style="stop-color:#F8F8F8"/>
	<stop  offset="5.000000e-02" style="stop-color:#F5F7F8"/>
	<stop  offset="8.000000e-02" style="stop-color:#EAF2F8"/>
	<stop  offset="0.12" style="stop-color:#D9EBF7"/>
	<stop  offset="0.15" style="stop-color:#C1E2F6"/>
	<stop  offset="0.18" style="stop-color:#A2D5F5"/>
	<stop  offset="0.21" style="stop-color:#7BC5F4"/>
	<stop  offset="0.24" style="stop-color:#4DB2F2"/>
	<stop  offset="0.27" style="stop-color:#1A9DF0"/>
	<stop  offset="0.28" style="stop-color:#0F99F0"/>
	<stop  offset="1" style="stop-color:#0162C6"/>
</linearGradient>
<path class="st8" d="M10.7,38.3H8.9v-4.7L6,38.3H4.7l-2.9-4.7v4.7H0v-6.9h2.4l2.9,4.8l2.9-4.8h2.4L10.7,38.3L10.7,38.3z"/>
<path class="st6" d="M10.7,38.3H8.9v-4.7L6,38.3H4.7l-2.9-4.7v4.7H0v-6.9h2.4l2.9,4.8l2.9-4.8h2.4L10.7,38.3L10.7,38.3z"/>
<linearGradient id="SVGID_9_" gradientUnits="userSpaceOnUse" x1="636.4043" y1="1980.9679" x2="-1811.8359" y2="-6007.1997" gradientTransform="matrix(1 0 0 -1 0 62)">
	<stop  offset="0" style="stop-color:#F8F8F8"/>
	<stop  offset="5.000000e-02" style="stop-color:#F5F7F8"/>
	<stop  offset="8.000000e-02" style="stop-color:#EAF2F8"/>
	<stop  offset="0.12" style="stop-color:#D9EBF7"/>
	<stop  offset="0.15" style="stop-color:#C1E2F6"/>
	<stop  offset="0.18" style="stop-color:#A2D5F5"/>
	<stop  offset="0.21" style="stop-color:#7BC5F4"/>
	<stop  offset="0.24" style="stop-color:#4DB2F2"/>
	<stop  offset="0.27" style="stop-color:#1A9DF0"/>
	<stop  offset="0.28" style="stop-color:#0F99F0"/>
	<stop  offset="1" style="stop-color:#0162C6"/>
</linearGradient>
<path class="st9" d="M34.9,31.5v5.2l4.8-5.2h2.4v6.9h-1.8v-5.1l-4.8,5.1h-2.4v-6.9L34.9,31.5L34.9,31.5z"/>
<path class="st6" d="M34.9,31.5v5.2l4.8-5.2h2.4v6.9h-1.8v-5.1l-4.8,5.1h-2.4v-6.9L34.9,31.5L34.9,31.5z"/>
<linearGradient id="SVGID_10_" gradientUnits="userSpaceOnUse" x1="692.0155" y1="2016.3818" x2="-1944.6544" y2="-6116.5835" gradientTransform="matrix(1 0 0 -1 0 62)">
	<stop  offset="0" style="stop-color:#F8F8F8"/>
	<stop  offset="5.000000e-02" style="stop-color:#F5F7F8"/>
	<stop  offset="8.000000e-02" style="stop-color:#EAF2F8"/>
	<stop  offset="0.12" style="stop-color:#D9EBF7"/>
	<stop  offset="0.15" style="stop-color:#C1E2F6"/>
	<stop  offset="0.18" style="stop-color:#A2D5F5"/>
	<stop  offset="0.21" style="stop-color:#7BC5F4"/>
	<stop  offset="0.24" style="stop-color:#4DB2F2"/>
	<stop  offset="0.27" style="stop-color:#1A9DF0"/>
	<stop  offset="0.28" style="stop-color:#0F99F0"/>
	<stop  offset="1" style="stop-color:#0162C6"/>
</linearGradient>
<path class="st10" d="M47.1,31.4c2.8,0,4.2,1,4.4,3h-1.8c-0.2-1.1-1-1.5-2.5-1.5c-1.8,0-2.6,0.6-2.6,2c0,1.4,0.8,2.1,2.6,2.1
	c1.5,0,2.4-0.4,2.5-1.6h1.8c-0.2,2-1.6,3-4.4,3c-3.1,0-4.4-1.3-4.4-3.5S44,31.4,47.1,31.4L47.1,31.4z"/>
<path class="st6" d="M47.1,31.4c2.8,0,4.2,1,4.4,3h-1.8c-0.2-1.1-1-1.5-2.5-1.5c-1.8,0-2.6,0.6-2.6,2c0,1.4,0.8,2.1,2.6,2.1
	c1.5,0,2.4-0.4,2.5-1.6h1.8c-0.2,2-1.6,3-4.4,3c-3.1,0-4.4-1.3-4.4-3.5S44,31.4,47.1,31.4L47.1,31.4z"/>
<linearGradient id="SVGID_11_" gradientUnits="userSpaceOnUse" x1="699.5515" y1="2017.6919" x2="-1929.738" y2="-6120.6143" gradientTransform="matrix(1 0 0 -1 0 62)">
	<stop  offset="0" style="stop-color:#F8F8F8"/>
	<stop  offset="5.000000e-02" style="stop-color:#F5F7F8"/>
	<stop  offset="8.000000e-02" style="stop-color:#EAF2F8"/>
	<stop  offset="0.12" style="stop-color:#D9EBF7"/>
	<stop  offset="0.15" style="stop-color:#C1E2F6"/>
	<stop  offset="0.18" style="stop-color:#A2D5F5"/>
	<stop  offset="0.21" style="stop-color:#7BC5F4"/>
	<stop  offset="0.24" style="stop-color:#4DB2F2"/>
	<stop  offset="0.27" style="stop-color:#1A9DF0"/>
	<stop  offset="0.28" style="stop-color:#0F99F0"/>
	<stop  offset="1" style="stop-color:#0162C6"/>
</linearGradient>
<path class="st11" d="M52,34.9c0-2.3,1.3-3.5,4.4-3.5c3.1,0,4.4,1.3,4.4,3.5c0,2.3-1.3,3.5-4.4,3.5C53.4,38.4,52,37.2,52,34.9z
	 M59,34.9c0-1.4-0.7-2-2.6-2c-1.9,0-2.6,0.6-2.6,2c0,1.4,0.7,2.1,2.6,2.1C58.3,37,59,36.3,59,34.9z"/>
<path class="st6" d="M52,34.9c0-2.3,1.3-3.5,4.4-3.5c3.1,0,4.4,1.3,4.4,3.5c0,2.3-1.3,3.5-4.4,3.5C53.4,38.4,52,37.2,52,34.9z
	 M59,34.9c0-1.4-0.7-2-2.6-2c-1.9,0-2.6,0.6-2.6,2c0,1.4,0.7,2.1,2.6,2.1C58.3,37,59,36.3,59,34.9z"/>
<linearGradient id="SVGID_12_" gradientUnits="userSpaceOnUse" x1="650.1057" y1="1990.8572" x2="-1737.2838" y2="-6037.7407" gradientTransform="matrix(1 0 0 -1 0 62)">
	<stop  offset="0" style="stop-color:#F8F8F8"/>
	<stop  offset="5.000000e-02" style="stop-color:#F5F7F8"/>
	<stop  offset="8.000000e-02" style="stop-color:#EAF2F8"/>
	<stop  offset="0.12" style="stop-color:#D9EBF7"/>
	<stop  offset="0.15" style="stop-color:#C1E2F6"/>
	<stop  offset="0.18" style="stop-color:#A2D5F5"/>
	<stop  offset="0.21" style="stop-color:#7BC5F4"/>
	<stop  offset="0.24" style="stop-color:#4DB2F2"/>
	<stop  offset="0.27" style="stop-color:#1A9DF0"/>
	<stop  offset="0.28" style="stop-color:#0F99F0"/>
	<stop  offset="1" style="stop-color:#0162C6"/>
</linearGradient>
<path class="st12" d="M70.8,31.5v6.9H69v-2.7h-5.7v2.7h-1.8v-6.9h1.8v2.7H69v-2.7H70.8L70.8,31.5z"/>
<path class="st6" d="M70.8,31.5v6.9H69v-2.7h-5.7v2.7h-1.8v-6.9h1.8v2.7H69v-2.7H70.8L70.8,31.5z"/>
<linearGradient id="SVGID_13_" gradientUnits="userSpaceOnUse" x1="761.0875" y1="1954.5994" x2="-2021.4027" y2="-5926.1045" gradientTransform="matrix(1 0 0 -1 0 62)">
	<stop  offset="0" style="stop-color:#F8F8F8"/>
	<stop  offset="5.000000e-02" style="stop-color:#F5F7F8"/>
	<stop  offset="8.000000e-02" style="stop-color:#EAF2F8"/>
	<stop  offset="0.12" style="stop-color:#D9EBF7"/>
	<stop  offset="0.15" style="stop-color:#C1E2F6"/>
	<stop  offset="0.18" style="stop-color:#A2D5F5"/>
	<stop  offset="0.21" style="stop-color:#7BC5F4"/>
	<stop  offset="0.24" style="stop-color:#4DB2F2"/>
	<stop  offset="0.27" style="stop-color:#1A9DF0"/>
	<stop  offset="0.28" style="stop-color:#0F99F0"/>
	<stop  offset="1" style="stop-color:#0162C6"/>
</linearGradient>
<path class="st13" d="M78.7,36.9H84v1.5h-7.9v-0.9c0-2.8,6.2-2.2,6.2-3.8c0-0.6-0.4-0.8-1.9-0.8c-1.6,0-2.3,0.2-2.3,1.3h-1.8
	c0-2.3,1.6-2.8,4-2.8c2.4,0,3.8,0.5,3.8,2.2C84.1,36.2,79.1,35.5,78.7,36.9z"/>
<path class="st6" d="M78.7,36.9H84v1.5h-7.9v-0.9c0-2.8,6.2-2.2,6.2-3.8c0-0.6-0.4-0.8-1.9-0.8c-1.6,0-2.3,0.2-2.3,1.3h-1.8
	c0-2.3,1.6-2.8,4-2.8c2.4,0,3.8,0.5,3.8,2.2C84.1,36.2,79.1,35.5,78.7,36.9z"/>
<linearGradient id="SVGID_14_" gradientUnits="userSpaceOnUse" x1="769.1311" y1="1989.5526" x2="-2012.6788" y2="-6033.7041" gradientTransform="matrix(1 0 0 -1 0 62)">
	<stop  offset="0" style="stop-color:#F8F8F8"/>
	<stop  offset="5.000000e-02" style="stop-color:#F5F7F8"/>
	<stop  offset="8.000000e-02" style="stop-color:#EAF2F8"/>
	<stop  offset="0.12" style="stop-color:#D9EBF7"/>
	<stop  offset="0.15" style="stop-color:#C1E2F6"/>
	<stop  offset="0.18" style="stop-color:#A2D5F5"/>
	<stop  offset="0.21" style="stop-color:#7BC5F4"/>
	<stop  offset="0.24" style="stop-color:#4DB2F2"/>
	<stop  offset="0.27" style="stop-color:#1A9DF0"/>
	<stop  offset="0.28" style="stop-color:#0F99F0"/>
	<stop  offset="1" style="stop-color:#0162C6"/>
</linearGradient>
<path class="st14" d="M84.6,34.9c0-2.3,1.3-3.5,4.1-3.5s4.1,1.3,4.1,3.5c0,2.3-1.3,3.5-4.1,3.5C85.9,38.4,84.6,37.2,84.6,34.9z
	 M91,34.9c0-1.3-0.7-2-2.3-2s-2.3,0.8-2.3,2c0,1.3,0.7,2.1,2.3,2.1S91,36.2,91,34.9L91,34.9z"/>
<path class="st6" d="M84.6,34.9c0-2.3,1.3-3.5,4.1-3.5s4.1,1.3,4.1,3.5c0,2.3-1.3,3.5-4.1,3.5C85.9,38.4,84.6,37.2,84.6,34.9z
	 M91,34.9c0-1.3-0.7-2-2.3-2s-2.3,0.8-2.3,2c0,1.3,0.7,2.1,2.3,2.1S91,36.2,91,34.9L91,34.9z"/>
<linearGradient id="SVGID_15_" gradientUnits="userSpaceOnUse" x1="778.2549" y1="1954.5455" x2="-2004.5349" y2="-5925.9209" gradientTransform="matrix(1 0 0 -1 0 62)">
	<stop  offset="0" style="stop-color:#F8F8F8"/>
	<stop  offset="5.000000e-02" style="stop-color:#F5F7F8"/>
	<stop  offset="8.000000e-02" style="stop-color:#EAF2F8"/>
	<stop  offset="0.12" style="stop-color:#D9EBF7"/>
	<stop  offset="0.15" style="stop-color:#C1E2F6"/>
	<stop  offset="0.18" style="stop-color:#A2D5F5"/>
	<stop  offset="0.21" style="stop-color:#7BC5F4"/>
	<stop  offset="0.24" style="stop-color:#4DB2F2"/>
	<stop  offset="0.27" style="stop-color:#1A9DF0"/>
	<stop  offset="0.28" style="stop-color:#0F99F0"/>
	<stop  offset="1" style="stop-color:#0162C6"/>
</linearGradient>
<path class="st15" d="M95.8,36.9h5.3v1.5h-7.9v-0.9c0-2.8,6.2-2.2,6.2-3.8c0-0.6-0.4-0.8-1.9-0.8c-1.6,0-2.3,0.2-2.3,1.3h-1.8
	c0-2.3,1.6-2.8,4-2.8c2.4,0,3.8,0.5,3.8,2.2C101.2,36.2,96.2,35.5,95.8,36.9L95.8,36.9z"/>
<path class="st6" d="M95.8,36.9h5.3v1.5h-7.9v-0.9c0-2.8,6.2-2.2,6.2-3.8c0-0.6-0.4-0.8-1.9-0.8c-1.6,0-2.3,0.2-2.3,1.3h-1.8
	c0-2.3,1.6-2.8,4-2.8c2.4,0,3.8,0.5,3.8,2.2C101.2,36.2,96.2,35.5,95.8,36.9L95.8,36.9z"/>
<linearGradient id="SVGID_16_" gradientUnits="userSpaceOnUse" x1="756.8585" y1="1943.0078" x2="-1903.5416" y2="-5890.6382" gradientTransform="matrix(1 0 0 -1 0 62)">
	<stop  offset="0" style="stop-color:#F8F8F8"/>
	<stop  offset="5.000000e-02" style="stop-color:#F5F7F8"/>
	<stop  offset="8.000000e-02" style="stop-color:#EAF2F8"/>
	<stop  offset="0.12" style="stop-color:#D9EBF7"/>
	<stop  offset="0.15" style="stop-color:#C1E2F6"/>
	<stop  offset="0.18" style="stop-color:#A2D5F5"/>
	<stop  offset="0.21" style="stop-color:#7BC5F4"/>
	<stop  offset="0.24" style="stop-color:#4DB2F2"/>
	<stop  offset="0.27" style="stop-color:#1A9DF0"/>
	<stop  offset="0.28" style="stop-color:#0F99F0"/>
	<stop  offset="1" style="stop-color:#0162C6"/>
</linearGradient>
<path class="st16" d="M109.7,37.2h-1.4v1.1h-1.8v-1.1h-4.9v-1.5l4.9-4.3h1.8v4.3h1.4V37.2z M106.5,35.7v-2.5l-3,2.5L106.5,35.7z"/>
<path class="st6" d="M109.7,37.2h-1.4v1.1h-1.8v-1.1h-4.9v-1.5l4.9-4.3h1.8v4.3h1.4V37.2z M106.5,35.7v-2.5l-3,2.5L106.5,35.7z"/>
</svg>
